<svg xmlns="http://www.w3.org/2000/svg" width="31.371094" height="31.371094" viewBox="0 0 31.371094 31.371093"><path d="M13.64 0v2.602c-.945.146-1.858.395-2.726.732L9.611 1.08 6.072 3.123l1.305 2.262a13 13 0 0 0-1.992 1.992L3.123 6.072 1.078 9.613l2.256 1.301a13 13 0 0 0-.732 2.727H0v4.088h2.602c.146.946.395 1.858.732 2.726l-2.256 1.303 2.045 3.54 2.262-1.306c.59.735 1.257 1.402 1.992 1.994l-1.305 2.26 3.54 2.045 1.302-2.256c.868.337 1.781.59 2.727.736v2.6h4.088v-2.6c.945-.149 1.857-.399 2.726-.736l1.3 2.256 3.542-2.045-1.303-2.26c.733-.592 1.4-1.26 1.992-1.994l2.26 1.307 2.045-3.541-2.256-1.303c.336-.868.588-1.78.735-2.726h2.601V13.64H28.77a13 13 0 0 0-.735-2.727l2.256-1.3-2.045-3.542-2.26 1.305c-.592-.735-1.26-1.4-1.994-1.992l1.305-2.262-3.541-2.043-1.3 2.254a13 13 0 0 0-2.727-.732V0Zm2.237 5.525c5.612 0 10.16 4.548 10.16 10.159s-4.548 10.162-10.16 10.162-10.16-4.55-10.16-10.162c0-5.611 4.548-10.159 10.16-10.159m0 .557c-.065 0-.128.008-.193.01v.877l-.016.002c-2.327.01-4.183 1.08-5.256 2.394-.579.707-1.1 1.808-1.18 2.854-.142 1.854.795 2.658.875 4.338.012.253.031.59-.037.8-.093.282-.565.557-.646.989-.062.318.036.546.152.914.655.704.413 1.846 1.217 2.36.496.315 1.354.105 1.902-.192-.242.886-.594 1.865-.53 2.931.27.084.692.015 1.024.037.012-.305-.035-.67.116-.835.268.117-.006.54.076.835h1.103c.032-.309-.087-.772.116-.914.246.118-.012.592.076.914h.875c.066-.253.029-.61.133-.83.006-.013.01-.031.017-.045v-1.773l-.015-.012h-.002l-.502-.324.502-1.353.017-.045V6.97c2.325.01 4.183 1.08 5.256 2.394.579.707 1.1 1.81 1.182 2.854.141 1.854-.797 2.658-.877 4.338-.012.253-.031.59.037.8.092.282.567.557.648.989.06.318-.038.547-.154.914-.655.704-.413 1.846-1.217 2.361-.496.315-1.354.104-1.902-.193.242.886.596 1.865.533 2.931-.27.084-.697.015-1.027.037-.012-.305.035-.67-.116-.835-.266.117.007.54-.074.835h-1.103c-.034-.309.086-.772-.116-.914-.248.118.012.592-.076.914h-.875c-.068-.253-.034-.61-.136-.83v1.715c.065.002.128.008.193.008 5.295 0 9.605-4.308 9.605-9.605 0-5.295-4.31-9.602-9.605-9.602m-.191 15.654.502-.324-.502-1.353Zm-2.834-4.963a1.857 1.857 0 1 1-.004 3.715 1.857 1.857 0 0 1 .004-3.715m6.468.66c-.662.377-1.363.717-2.283.837-.203.202-.553.257-.607.609.869.53 1.894 1.091 3.234 1.027.472-.39.75-.977.723-1.865-.228-.33-.652-.466-1.067-.607" style="fill:#fff;fill-opacity:1;fill-rule:nonzero;stroke:none;stroke-width:1.33333"/></svg>