<?xml version="1.0" encoding="UTF-8" standalone="no"?>
<!-- Generator: Gravit.io -->

<svg
   style="isolation:isolate"
   viewBox="0 0 48 48"
   width="48pt"
   height="48pt"
   version="1.1"
   id="svg1237"
   sodipodi:docname="network-dead.svg"
   inkscape:version="1.2.2 (b0a8486541, 2022-12-01)"
   xmlns:inkscape="http://www.inkscape.org/namespaces/inkscape"
   xmlns:sodipodi="http://sodipodi.sourceforge.net/DTD/sodipodi-0.dtd"
   xmlns="http://www.w3.org/2000/svg"
   xmlns:svg="http://www.w3.org/2000/svg">
  <defs
     id="defs1241" />
  <sodipodi:namedview
     id="namedview1239"
     pagecolor="#ffffff"
     bordercolor="#000000"
     borderopacity="0.25"
     inkscape:showpageshadow="2"
     inkscape:pageopacity="0.0"
     inkscape:pagecheckerboard="0"
     inkscape:deskcolor="#d1d1d1"
     inkscape:document-units="pt"
     showgrid="false"
     inkscape:zoom="13.59375"
     inkscape:cx="37.25977"
     inkscape:cy="35.678161"
     inkscape:window-width="1920"
     inkscape:window-height="1012"
     inkscape:window-x="1920"
     inkscape:window-y="924"
     inkscape:window-maximized="1"
     inkscape:current-layer="g859" />
  <linearGradient
     id="_lgradient_25"
     x1="0"
     y1="0.5"
     x2="1"
     y2="0.5"
     gradientTransform="matrix(43,0,0,43,2.5,3.5)"
     gradientUnits="userSpaceOnUse">
    <stop
       offset="0"
       stop-opacity="1"
       style="stop-color:#00ffff;stop-opacity:1;"
       id="stop1230" />
    <stop
       offset="98.69565217391305%"
       stop-opacity="1"
       style="stop-color:rgb(236,110,173)"
       id="stop1232" />
  </linearGradient>
  <path
     d=" M 33.254 13.024 L 31.077 13.024 L 31.077 13.024 L 31.077 16.835 L 27.81 16.835 L 27.81 13.024 L 25.633 13.024 L 25.633 16.835 L 22.367 16.835 L 22.367 13.024 L 22.367 13.024 L 20.19 13.024 L 20.19 13.024 L 20.19 16.835 L 16.923 16.835 L 16.923 13.024 L 14.746 13.024 L 14.746 16.835 L 11.48 16.835 L 11.48 13.024 L 11.48 13.024 L 10.391 13.024 L 10.391 13.024 L 10.391 30.444 L 15.835 30.444 L 15.835 36.976 L 32.165 36.976 L 32.165 30.444 L 37.609 30.444 L 37.609 13.024 L 36.52 13.024 L 36.52 16.835 L 33.254 16.835 L 33.254 13.024 L 33.254 13.024 L 33.254 13.024 Z  M 5.5 26 L 5.5 26 C 5.5 26.828 4.828 27.5 4 27.5 L 4 27.5 C 3.172 27.5 2.5 26.828 2.5 26 L 2.5 26 L 2.5 6.5 C 2.5 4.844 3.844 3.5 5.5 3.5 L 42.5 3.5 C 44.156 3.5 45.5 4.844 45.5 6.5 L 45.5 16 L 45.5 16 C 45.5 16.828 44.828 17.5 44 17.5 L 44 17.5 C 43.172 17.5 42.5 16.828 42.5 16 L 42.5 16 L 42.5 7.5 C 42.5 6.948 42.052 6.5 41.5 6.5 L 6.5 6.5 C 5.948 6.5 5.5 6.948 5.5 7.5 L 5.5 26 L 5.5 26 Z  M 9.302 9.758 L 38.698 9.758 C 39.899 9.758 40.875 10.734 40.875 11.935 L 40.875 31.532 C 40.875 32.734 39.899 33.71 38.698 33.71 L 35.431 33.71 L 35.431 38.065 C 35.431 39.266 34.456 40.242 33.254 40.242 L 14.746 40.242 C 13.544 40.242 12.569 39.266 12.569 38.065 L 12.569 33.71 L 9.302 33.71 C 8.101 33.71 7.125 32.734 7.125 31.532 L 7.125 11.935 C 7.125 10.734 8.101 9.758 9.302 9.758 L 9.302 9.758 L 9.302 9.758 L 9.302 9.758 L 9.302 9.758 L 9.302 9.758 L 9.302 9.758 L 9.302 9.758 Z  M 42.5 25 L 42.5 25 C 42.5 24.172 43.172 23.5 44 23.5 L 44 23.5 C 44.828 23.5 45.5 24.172 45.5 25 L 45.5 25 L 45.5 43.5 C 45.5 45.156 44.156 46.5 42.5 46.5 L 5.5 46.5 C 3.844 46.5 2.5 45.156 2.5 43.5 L 2.5 35 L 2.5 35 C 2.5 34.172 3.172 33.5 4 33.5 L 4 33.5 C 4.828 33.5 5.5 34.172 5.5 35 L 5.5 35 L 5.5 42.5 C 5.5 43.052 5.948 43.5 6.5 43.5 L 41.5 43.5 C 42.052 43.5 42.5 43.052 42.5 42.5 L 42.5 25 Z "
     fill-rule="evenodd"
     fill="url(#_lgradient_25)"
     id="path1235"
     style="fill:#00ffff;fill-opacity:1" />
  <g
     id="g859">
    <g
       id="g853"
       transform="matrix(1.170499,0,0,1.1416717,-8.1331189,-6.7816438)">
      <ellipse
         style="fill:#800000;fill-opacity:1;stroke-width:0.75"
         id="path5531"
         cx="38.09655"
         cy="38.121162"
         rx="9.6053076"
         ry="9.7475615" />
      <path
         style="isolation:isolate;fill:#ffffff;fill-opacity:1;stroke-width:0.75"
         d="M 32.354391,32.496619 42.353152,44.946437 43.533796,43.935331 33.59344,31.672582 Z"
         id="path5885" />
      <path
         style="isolation:isolate;fill:#ffffff;fill-opacity:1;stroke-width:0.75"
         d="m 32.457859,43.848094 9.998761,-12.449818 1.180644,1.011106 -9.940356,12.262749 z"
         id="path5885-3" />
    </g>
  </g>
</svg>
